<svg xmlns:xlink="http://www.w3.org/1999/xlink" xmlns="http://www.w3.org/2000/svg" viewBox="0 0 35 35" height="32" width="32"><path d="M7.78 3.93h13.39a2.5 2.5 0 0 1 2.5 2.5v24.64H5.28V6.43a2.5 2.5 0 0 1 2.5-2.5ZM23.67 23.8h3.56a2.5 2.5 0 0 0 2.5-2.5V9.66h-2.64v6.5l2.64 2.48M29.72 9.66V4.7M5.39 23.8h18.28" style="stroke-miterlimit: 10;" stroke="#000000" fill="none" stroke-width="1.25px"></path><path d="M17.52 14.81c0 1.68-1.36 3.05-3.05 3.05s-3.05-1.36-3.05-3.05 3.05-5.76 3.05-5.76 3.05 4.08 3.05 5.76Z" style="stroke-miterlimit: 10;" stroke="#000000" fill="none" stroke-width="1.25px"></path></svg>