<svg xmlns:xlink="http://www.w3.org/1999/xlink" xmlns="http://www.w3.org/2000/svg" viewBox="0 0 24 24" focusable="false" class="chakra-icon css-1x8eu64" role="img" aria-label="search" aria-hidden="true" width="24"  height="24" ><defs><symbol xmlns="http://www.w3.org/2000/svg" fill="none" viewBox="0 0 16 16" id="search"> 
     <path fill="currentColor" d="m13.85 13.15-2.54-2.54c.75-.91 1.22-2.06 1.22-3.33 0-2.9-2.36-5.27-5.27-5.27S2 4.36 2 7.27a5.27 5.27 0 0 0 5.27 5.27c1.27 0 2.42-.47 3.33-1.22l2.54 2.54a.485.485 0 0 0 .7 0c.2-.2.2-.51 0-.71zM3 7.27C3 4.92 4.91 3 7.27 3s4.27 1.91 4.27 4.27-1.91 4.27-4.27 4.27S3 9.63 3 7.27"></path> 
    </symbol></defs><use role="presentation" xlink:href="#search"></use></svg>