<?xml version="1.0" encoding="UTF-8"?>
<svg id="Layer_1" data-name="Layer 1" xmlns="http://www.w3.org/2000/svg" viewBox="0 0 32 32">
  <defs>
    <style>
      .cls-1 {
        fill: none;
        stroke: #000;
        stroke-miterlimit: 9.1428571939;
        stroke-width: .8px;
      }
    </style>
  </defs>
  <path class="cls-1" d="M6.4879435549,7.1030858028l.2816000818-2.7986284685c.0644374306-.6415034739.6366564105-1.1093475404,1.2781716554-1.0450286924l1.6621712914.1673143669c.6418282681.0639999393,1.1090288497.6363429514,1.0450282564,1.2781712195l-.1673139309,1.6521144414c-.0210222518.2066009533-.0967677531.4038565522-.2194283634.5714285746l-.7862854048,1.0788574279c-.244346838.334990585-.6480316198.5152570481-1.060571295.4735996818l-.5942858048-.0594281881-.3949715773-.0402282717c-.6407418423-.0649152487-1.1079140861-.6364039865-1.0441149089-1.277257872v-.0009142195ZM8.137314902,10.2482282939l-.1417144783-1.7609139677M13.7327434001,21.6137138485c-.2285714298.3200003506-.521142581.6125715017-.8319998651.868572131-.3108572841-.3565708725-.7771432103-.5759992359-1.2891427248-.5759992359-.521142581,0-.9782854407.2194283634-1.2891427248.5759992359l-3.2182861508-10.1211426347c-.2651428237-.8594281926.1828569695-1.7828569784,1.0331429675-2.1119995235.2011426664-.0822858543.4205714658-.1188572482.6308571987-.1188572482.7862858407,0,1.5085715242.5302856475,1.6822854272,1.3440002517.3748570054,1.6914289297.0822858543,2.62399991,1.4811427608,4.8274292262,1.6914289297,2.6788574368,2.7245718972,3.9954276172,1.8011431113,5.3119977975Z"/>
  <path class="cls-1" d="M13.3578863946,23.6434292616c0,.9325718523-.7314287499,1.7005719961-1.6639997303,1.7371425181-.0274283274.0091430665-.0548575268.0091430665-.0822858543.0091430665-.9600001797,0-1.7371425181-.7862862767-1.7371425181-1.7462855845,0-.4479997932.1645717085-.8594290645.4479997932-1.1611432822.3108572841-.3565708725.7680001438-.5759992359,1.2891427248-.5759992359.5120003865,0,.9782854407.2194283634,1.2891427248.5759992359.2834289567.3017142176.4571428597.7131434889.4571428597,1.1611432822Z"/>
  <path class="cls-1" d="M25.517885765,23.6982859165v1.8742850272c0,.6582850902-.539428714,1.1977138041-1.1977138041,1.1977138041h-11.4377145589c-.6582859621,0-1.1885716096-.539428714-1.1885716096-1.1977138041v-.191999164c.9325709804-.0365722658,1.6639997303-.8045706658,1.6639997303-1.7371425181,0-.4479997932-.173713903-.8594290645-.4571428597-1.1611432822l10.304001348-.8594290645c1.23428607-.1371425091,2.3131434979.8319998651,2.313141754,2.0754290016ZM12.3137719217,28.7469710731h12.3693726277"/>
</svg>