<svg xmlns:xlink="http://www.w3.org/1999/xlink" xmlns="http://www.w3.org/2000/svg" viewBox="0 0 35 35" height="32" width="32"><circle cx="8.3" cy="24.5" r="3.1" style="stroke-miterlimit: 10;" stroke="#000000" fill="none" stroke-width="1.25px"></circle><circle cx="26.6" cy="24.5" r="3.1" style="stroke-miterlimit: 10;" stroke="#000000" fill="none" stroke-width="1.25px"></circle><path d="M3.8 17.7v6.5h1.4c.1-1.6 1.4-2.8 3.1-2.8 1.3 0 2.5.9 2.9 2.1.1.4.5.7 1 .7h10.5c.5 0 .9-.3 1-.7.4-1.2 1.6-2.1 2.9-2.1 1.3 0 2.5.9 2.9 2.1.1.4.5.7 1 .7s1-.4 1.1-1l.4-4.4c.1-.6-.4-1.2-1.1-1.2H3.8z" style="stroke-miterlimit: 10;" stroke="#000000" fill="none" stroke-width="1.25px"></path><path d="m7.7 17.7 2-5.5c.2-.4.6-.7 1-.7h9.8c.3 0 .6.1.8.4l4.6 5.7" style="stroke-miterlimit: 10;" stroke="#000000" fill="none" stroke-width="1.25px"></path></svg>