<svg xmlns:xlink="http://www.w3.org/1999/xlink" xmlns="http://www.w3.org/2000/svg" viewBox="0 0 24 24" focusable="false" class="chakra-icon css-1x8eu64" role="img" aria-label="account" aria-hidden="true" width="24"  height="24" ><defs><symbol xmlns="http://www.w3.org/2000/svg" fill="none" viewBox="0 0 16 16" id="account"> 
     <path fill="currentColor" d="M8 9.33c-2.7 0-4.9 1.87-4.9 4.17 0 .28.22.5.5.5s.5-.22.5-.5c0-1.75 1.75-3.17 3.9-3.17s3.9 1.42 3.9 3.17c0 .28.22.5.5.5s.5-.22.5-.5c0-2.3-2.2-4.17-4.9-4.17M8 8.87c1.89 0 3.43-1.54 3.43-3.43S9.89 2.01 8 2.01 4.57 3.55 4.57 5.44 6.11 8.87 8 8.87M8 3c1.34 0 2.43 1.09 2.43 2.43S9.34 7.86 8 7.86 5.57 6.77 5.57 5.43 6.66 3 8 3"></path> 
    </symbol></defs><use role="presentation" xlink:href="#account"></use></svg>