<?xml version="1.0" encoding="UTF-8"?>
<svg id="Layer_1" data-name="Layer 1" xmlns="http://www.w3.org/2000/svg" viewBox="0 0 451.6850179434 173.2052492221">
  <defs>
    <style>
      .cls-1 {
        fill: #333;
      }

      .cls-1, .cls-2 {
        stroke-width: 0px;
      }

      .cls-2 {
        fill: #8f292c;
      }
    </style>
  </defs>
  <path class="cls-2" d="M238.7577718496.4721355756c33.132417202-2.6241692901,70.3992164135,6.0297816992,101.148635149,17.547159791,18.8391578197,7.0566743612,29.419131279,14.955073595,50.6987071037,12.9232805967,20.1024460793-1.9193196297,38.798084259-5.456520915,58.579903841-9.2281609774-11.4891648293,13.1582158804-20.662330389,17.2519135475-36.6686546803,22.8912073374l20.2747046947.2536273003c-2.2394788265,5.1799374819-4.7277367115,10.2555501461-7.1681547165,15.3459995985-32.7448499203-12.5045794249-77.3951125145-14.7373408079-111.293143034-6.1450880766,15.9201657772-11.9978505373,37.9558336735-13.9774519205,57.431396246-14.5808535814-24.796653986-13.965010047-47.1816289425-20.6283342838-74.7393274307-27.5237607956C249.3903750181.9874949177,219.2773902416.0744921286,174.1945242882,22.6829243024c-11.586304903,5.8101212978-23.4271717072,14.3147844076-36.2255370617,16.9403994083-13.2046538591,2.7088820934-27.2127139568.3431153297-40.5924886465.3325718641-14.7593331337-.0114780664-29.6344691515,1.4188116789-44.2249023914,3.5620850325-9.1582995653,1.3556092978-18.2768785954,2.9663062096-27.345252037,4.8306012154-4.844006896.98095119-21.9246256351,5.3402507305-25.6627953053,4.9224841595l-.1435488462-.572296977c4.54446733-2.6634079218,9.933989048-2.9605817795,14.9770659208-4.2611664534,24.005689621-6.1919933558,50.2451044321-10.7694929838,74.9819731712-12.8730458021,14.0219330788-1.1919665337,30.9231084585-.146907568,44.5828253031-2.486359477,8.8515752554-1.5159517527,22.746694684-10.7149356604,31.4547210932-15.058901906C189.1835647821,6.4516824801,213.1332659721,1.9780257662,238.7577718496.4721355756Z"/>
  <path class="cls-2" d="M159.5471554995,49.8578736345c7.7816162109-6.9342041016,17.429473877-16.0015869141,25.8503723145-21.7552490234l-12.5820922852,18.0510253906c13.7956848145.4880981445,27.5914001465.9761962891,41.3870849609,1.4642944336,12.5094604492.6962890625,25.0189208984,1.3925170898,37.5283813477,2.0888061523h0c-12.5897827148.0579833984-25.1813049316.1007080078-37.774597168.128112793-18.138092041.0394287109-36.2744750977.0471191406-54.4091491699.0230102539Z"/>
  <g>
    <path class="cls-1" d="M3.5378582188,106.9249582608c0-16.8032226562,12.8642578125-28.943359375,30.1494140625-28.943359375,9.166015625,0,17.044921875,3.2963867188,22.2705078125,9.4067382812l-6.7529296875,6.3515625c-4.1005859375-4.421875-9.166015625-6.5927734375-15.03515625-6.5927734375-11.6572265625,0-20.099609375,8.2006835938-20.099609375,19.7778320312,0,11.5776367188,8.4423828125,19.7783203125,20.099609375,19.7783203125,5.869140625,0,10.9345703125-2.1708984375,15.03515625-6.6733398438l6.7529296875,6.4321289062c-5.2255859375,6.1103515625-13.1044921875,9.4067382812-22.3505859375,9.4067382812-17.205078125,0-30.0693359375-12.140625-30.0693359375-28.9438476562Z"/>
    <path class="cls-1" d="M101.3025066563,122.0401926358h-28.1396484375l-5.5478515625,13.0244140625h-10.7734375l25.326171875-56.2788085938h10.291015625l25.4052734375,56.2788085938h-10.93359375l-5.6279296875-13.0244140625ZM97.8454754063,113.839509042l-10.61328125-24.6020507812-10.5322265625,24.6020507812h21.1455078125Z"/>
    <path class="cls-1" d="M161.8425457188,135.0646066983l-11.4970703125-16.4819335938c-.7236328125.0805664062-1.447265625.0805664062-2.1708984375.0805664062h-12.7021484375v16.4013671875h-10.4521484375v-56.2788085938h23.154296875c14.7939453125,0,23.958984375,7.5571289062,23.958984375,20.0190429688,0,8.5224609375-4.341796875,14.7934570312-11.9794921875,17.7680664062l12.9443359375,18.4916992188h-11.255859375ZM147.6921550938,87.6295481045h-12.2197265625v22.4311523438h12.2197265625c9.166015625,0,13.9091796875-4.1806640625,13.9091796875-11.255859375s-4.7431640625-11.1752929688-13.9091796875-11.1752929688Z"/>
    <path class="cls-2" d="M225.9997722813,126.3009348233v8.763671875h-42.208984375v-56.2788085938h41.083984375v8.7631835938h-30.6328125v14.6328125h27.1748046875v8.6025390625h-27.1748046875v15.5166015625h31.7578125Z"/>
    <path class="cls-2" d="M287.6657879063,78.7857981045v56.2788085938h-8.6025390625l-31.0341796875-38.1088867188v38.1088867188h-10.37109375v-56.2788085938h8.6025390625l31.0341796875,38.1088867188v-38.1088867188h10.37109375Z"/>
    <path class="cls-2" d="M314.1960613438,87.6295481045h-18.65234375v-8.84375h47.7568359375v8.84375h-18.65234375v47.4350585938h-10.4521484375v-47.4350585938Z"/>
    <path class="cls-2" d="M384.8679363438,122.0401926358h-28.1396484375l-5.5478515625,13.0244140625h-10.7734375l25.326171875-56.2788085938h10.291015625l25.4052734375,56.2788085938h-10.93359375l-5.6279296875-13.0244140625ZM381.4109050938,113.839509042l-10.61328125-24.6020507812-10.5322265625,24.6020507812h21.1455078125Z"/>
    <path class="cls-2" d="M408.5847332188,78.7857981045h10.4521484375v47.4350585938h29.42578125v8.84375h-39.8779296875v-56.2788085938Z"/>
  </g>
  <g>
    <path class="cls-2" d="M290.2224285313,172.9474191983l-.03515625-15.8950195312-7.8779296875,13.154296875h-1.9873046875l-7.87890625-12.9487304688v15.689453125h-4.248046875v-23.9790039062h3.666015625l9.5224609375,15.89453125,9.3525390625-15.89453125h3.6650390625l.0341796875,23.9790039062h-4.212890625Z"/>
    <path class="cls-2" d="M316.4675457188,167.398102792h-11.990234375l-2.36328125,5.5493164062h-4.58984375l10.7900390625-23.9790039062h4.384765625l10.8251953125,23.9790039062h-4.6591796875l-2.3974609375-5.5493164062ZM314.9939129063,163.903962167l-4.521484375-10.482421875-4.4873046875,10.482421875h9.0087890625Z"/>
    <path class="cls-2" d="M347.8845379063,148.968415292v23.9790039062h-3.6650390625l-13.2236328125-16.2373046875v16.2373046875h-4.4189453125v-23.9790039062h3.666015625l13.22265625,16.2373046875v-16.2373046875h4.4189453125Z"/>
    <path class="cls-2" d="M369.8816082188,167.398102792h-11.990234375l-2.36328125,5.5493164062h-4.58984375l10.7900390625-23.9790039062h4.384765625l10.8251953125,23.9790039062h-4.6591796875l-2.3974609375-5.5493164062ZM368.4079754063,163.903962167l-4.521484375-10.482421875-4.4873046875,10.482421875h9.0087890625Z"/>
    <path class="cls-2" d="M396.0241863438,160.6837473233h4.212890625v9.5576171875c-2.5,2.0209960938-5.994140625,3.048828125-9.3857421875,3.048828125-7.43359375,0-12.9150390625-5.1728515625-12.9150390625-12.3325195312,0-7.1591796875,5.4814453125-12.33203125,12.9833984375-12.33203125,4.0078125,0,7.365234375,1.3359375,9.6259765625,3.9052734375l-2.80859375,2.740234375c-1.884765625-1.8837890625-4.04296875-2.740234375-6.611328125-2.740234375-5.1044921875,0-8.701171875,3.4599609375-8.701171875,8.4267578125,0,4.8642578125,3.5966796875,8.4272460938,8.666015625,8.4272460938,1.712890625,0,3.3916015625-.3427734375,4.93359375-1.2333984375v-7.4677734375Z"/>
    <path class="cls-2" d="M424.0837566563,169.2135324795v3.7338867188h-17.984375v-23.9790039062h17.5048828125v3.7338867188h-13.0517578125v6.234375h11.5791015625v3.6655273438h-11.5791015625v6.611328125h13.53125Z"/>
    <path class="cls-2" d="M444.7439129063,172.9474191983l-4.8984375-7.0224609375c-.30859375.0341796875-.6162109375.0341796875-.9248046875.0341796875h-5.4130859375v6.98828125h-4.453125v-23.9790039062h9.8662109375c6.302734375,0,10.2080078125,3.2197265625,10.2080078125,8.5297851562,0,3.630859375-1.849609375,6.302734375-5.1044921875,7.5703125l5.515625,7.87890625h-4.7958984375ZM438.7146160313,152.7364816983h-5.20703125v9.5571289062h5.20703125c3.9052734375,0,5.9267578125-1.78125,5.9267578125-4.7954101562,0-3.0146484375-2.021484375-4.76171875-5.9267578125-4.76171875Z"/>
  </g>
</svg>